<svg xmlns="http://www.w3.org/2000/svg" width="2300" height="420" viewBox="0 0 2300 420">
  <defs>
    <style>
      .cls-1 {
        fill: #2f2f41;
      }

      .cls-1, .cls-2, .cls-3 {
        fill-rule: evenodd;
      }

      .cls-2 {
        fill: #e5261f;
      }

      .cls-3 {
        fill: none;
        stroke: #e5261f;
        stroke-width: 30px;
      }
    </style>
  </defs>
  <path id="Torch" class="cls-1" d="M637.948,70.176q-18.7.343-37.23,0.34h-67.49q-18.7,0-37.231-.34t-34.169-.68q1.355,17.34,1.87,33.32t0.509,24.48q0,7.483-.169,14.28a102.412,102.412,0,0,1-.851,11.56h7.821q6.118-28.895,14.279-45.39t19.721-23.46q11.555-6.965,27.2-6.97h7.48v194.14q0,13.6-2.72,20.4t-10.539,9.01q-7.826,2.216-23.121,2.55v6.8q10.2-.335,26.861-0.68t35.359-.34q19.038,0,36.551.34t28.049,0.68v-6.8q-14.964-.334-22.779-2.55t-10.711-9.01q-2.892-6.8-2.889-20.4V77.316h7.819q15.636,0,27.2,6.97t19.889,23.63q8.328,16.664,13.771,45.22h7.819q-0.342-4.756-.68-11.56t-0.339-14.28q0-8.495.509-24.48t1.871-33.32Q656.642,69.839,637.948,70.176Zm95.369,68.68q-18.87,9.18-29.58,29.58t-10.71,54.06q0,33.66,10.71,53.89t29.58,29.41q18.87,9.18,43.01,9.18,24.814,0,43.52-9.18t29.24-29.41q10.534-20.224,10.54-53.89t-10.54-54.06q-10.542-20.4-29.24-29.58t-43.52-9.18Q752.182,129.676,733.317,138.856Zm65.96,17.85q9,20.234,9.01,65.79t-9.01,65.62q-9.012,20.066-22.95,20.06-13.6,0-22.78-20.06t-9.18-65.62q0-45.556,9.18-65.79t22.78-20.23Q790.265,136.476,799.277,156.706Zm178.666-22.78a50.7,50.7,0,0,0-15.64,11.73,62.08,62.08,0,0,0-10.88,16.66V130.7a183.545,183.545,0,0,1-22.95,3.57q-12.415,1.2-26.69,1.19-10.2,0-21.08-1.02v7.14q12.575,0,17.17,7.31t4.59,22.61V278.6q0,14.28-4.93,19.38t-16.83,5.1v7.14q7.14-.335,21.08-0.85t27.54-.51q16.32,0,31.28.51t22.78,0.85v-7.14q-15.986,0-23.97-5.78t-7.99-22.1V185.1a47.254,47.254,0,0,1,4.08-18.7,52.067,52.067,0,0,1,11.05-16.49,28.089,28.089,0,0,1,15.81-8.33,15.26,15.26,0,0,1,9.52-.34,40.146,40.146,0,0,0-10.71,10.71q-4.255,6.3-4.25,15.81,0,9.865,6.63,15.81t18.527,5.95q11.895,0,19.21-7.99t7.31-20.57a35.954,35.954,0,0,0-3.23-14.96,27.792,27.792,0,0,0-10.03-11.73q-6.8-4.59-17.677-4.59A44.938,44.938,0,0,0,977.943,133.926Zm106.757,6.29q-19.05,10.543-30.09,31.45t-11.05,51.51q0,31.964,10.71,52.19t28.56,29.92q17.85,9.69,39.95,9.69,19.71,0,33.32-7.99a67.569,67.569,0,0,0,22.1-20.57,92.157,92.157,0,0,0,12.24-25.16l-5.78-2.04q-10.545,17.005-22.78,22.27t-21.76,5.27a41.885,41.885,0,0,1-21.59-6.12q-10.38-6.12-17-21.08t-6.63-41.14a164.769,164.769,0,0,1,2.89-31.96,100.247,100.247,0,0,1,8.33-25.5q5.43-10.876,13.43-17a29.6,29.6,0,0,1,18.53-6.12,30.321,30.321,0,0,1,12.24,2.38,21.122,21.122,0,0,1,8.16,5.78,32.775,32.775,0,0,0-15.64,9.69q-6.81,7.315-6.8,18.19,0,11.564,7.14,18.36t19.04,6.8q11.9,0,19.38-7.65t7.48-19.55a34.638,34.638,0,0,0-4.93-18.53,41.268,41.268,0,0,0-13.77-13.43,67.014,67.014,0,0,0-18.19-7.31,96.159,96.159,0,0,0-24.31-2.89Q1103.73,129.676,1084.7,140.216Zm169.32-92.31q-12.585,1.2-26.52,1.19-10.2,0-21.08-1.02v7.14q12.57,0,17.17,7.31t4.59,22.61V278.6q0,14.28-4.93,19.38t-16.83,5.1v7.14q6.8-.335,20.23-0.85t26.69-.51q12.24,0,24.14.51t18.02,0.85v-7.14q-10.2,0-14.28-5.1t-4.08-19.38v-94.86q0-17.34,9.86-28.22t23.8-10.88q8.49,0,13.09,3.57a18.055,18.055,0,0,1,6.29,9.86,57.257,57.257,0,0,1,1.7,14.79V278.6q0,14.28-4.08,19.38t-14.28,5.1v7.14q6.12-.335,18.53-0.85t25.67-.51q12.24,0,25.33.51t19.55,0.85v-7.14q-11.91,0-16.83-5.1t-4.93-19.38v-91.46q0-17.34-2.55-27.54a38.553,38.553,0,0,0-8.33-16.66,34.557,34.557,0,0,0-13.94-9.69q-8.85-3.57-23.46-3.57a73.8,73.8,0,0,0-32.47,6.97q-14.46,6.974-22.95,24.65V44.336A183.514,183.514,0,0,1,1254.02,47.906Z"/>
  <path id="Drug" class="cls-2" d="M1497.62,69.836q-15.48.343-27.71,0.68-14.28.343-28.73-.17t-22.95-.85v6.8q10.53,0.343,16.15,2.55a12.277,12.277,0,0,1,7.48,8.16q1.86,5.953,1.87,18.53v168.64q0,12.24-1.87,18.36a11.837,11.837,0,0,1-7.31,8.16q-5.445,2.04-16.32,2.72v6.8q8.49-.677,22.95-0.85t29.41-.17q11.22,0,26.35.51t23.29,0.51q42.495,0,72.93-15.3,30.42-15.3,46.41-43.01t15.98-64.77q0-56.776-32.64-87.21T1523.29,69.5Q1513.09,69.5,1497.62,69.836Zm83.81,33.66q17.67,27.884,17.68,85,0,37.064-7.14,62.9t-23.63,39.27q-16.5,13.435-45.05,13.43-15.645,0-20.57-5.78t-4.93-23.46v-170q0-17.674,4.76-23.46t20.4-5.78Q1563.75,75.616,1581.43,103.5Zm194.47,30.43a50.655,50.655,0,0,0-15.64,11.73,62.008,62.008,0,0,0-10.88,16.66V130.7a183.6,183.6,0,0,1-22.95,3.57q-12.42,1.2-26.69,1.19-10.2,0-21.08-1.02v7.14q12.57,0,17.17,7.31t4.59,22.61V278.6q0,14.28-4.93,19.38t-16.83,5.1v7.14q7.14-.335,21.08-0.85t27.54-.51q16.32,0,31.28.51t22.78,0.85v-7.14q-15.99,0-23.97-5.78t-7.99-22.1V185.1a47.254,47.254,0,0,1,4.08-18.7,52.05,52.05,0,0,1,11.05-16.49,28.07,28.07,0,0,1,15.81-8.33,15.259,15.259,0,0,1,9.52-.34,40.088,40.088,0,0,0-10.71,10.71q-4.26,6.3-4.25,15.81,0,9.865,6.63,15.81t18.53,5.95q11.895,0,19.21-7.99t7.31-20.57a35.954,35.954,0,0,0-3.23-14.96,27.862,27.862,0,0,0-10.03-11.73q-6.81-4.59-17.68-4.59A44.926,44.926,0,0,0,1775.9,133.926Zm207.91,0.34q-12.42,1.2-26.69,1.19-10.2,0-21.08-1.02v7.14q12.57,0,17.17,7.31t4.59,22.61v89.08q0,16.664-9.69,28.05t-23.29,11.39q-8.5,0-12.92-3.57a17.611,17.611,0,0,1-5.95-10.03,65.3,65.3,0,0,1-1.53-14.96V130.7a183.6,183.6,0,0,1-22.95,3.57q-12.42,1.2-26.69,1.19-10.2,0-21.08-1.02v7.14q12.57,0,17.17,7.31t4.59,22.61v86.02q0,16.663,2.38,27.2t8.16,17a37.781,37.781,0,0,0,13.94,9.52q8.835,3.738,23.12,3.74a70.208,70.208,0,0,0,32.13-7.31q14.445-7.306,22.61-24.31v30.6a144.5,144.5,0,0,1,23.12-3.74q12.24-1.02,26.52-1.02,10.53,0,21.08,1.02v-7.14q-12.24,0-17-7.31t-4.76-22.61V130.7A183.6,183.6,0,0,1,1983.81,134.266Zm181.73,231.2q22.1-8.67,32.81-22.95t10.71-30.94q0-24.137-18.7-34.51t-46.92-10.37h-37.06q-13.605,0-13.6-10.88a14.49,14.49,0,0,1,5.61-11.73,121.039,121.039,0,0,1,12.07-8.67l-3.4-2.72q-22.11,9.523-33.32,20.4t-11.22,25.16q0,10.2,5.78,16.83t16.15,9.69a86.24,86.24,0,0,0,24.31,3.06h21.08q22.44,0,29.92,6.97a22.563,22.563,0,0,1,7.48,17.17q0,11.9-6.97,20.06t-19.04,12.24a85.26,85.26,0,0,1-27.37,4.08q-22.44,0-35.53-7.65t-13.09-21.93a28.01,28.01,0,0,1,2.89-12.41,32.179,32.179,0,0,1,9.35-11.05l-3.06-5.44q-18.705,4.758-28.22,13.09t-9.52,18.87q0,10.536,9.35,17.85t25.84,10.88a178.432,178.432,0,0,0,37.57,3.57Q2143.43,374.136,2165.54,365.466Zm-4.25-140.76q19.2-13.084,19.21-40.97,0-28.216-19.21-41.14t-48.45-12.92q-28.9,0-48.28,12.92t-19.38,41.14q0,27.883,19.38,40.97t48.28,13.09Q2142.075,237.8,2161.29,224.706Zm-62.56-3.4q-5.28-10.367-5.27-37.57t5.27-37.57Q2104,135.8,2112.84,135.8q9.18,0,14.28,10.37t5.1,37.57q0,27.206-5.1,37.57t-14.28,10.37Q2103.99,231.676,2098.73,221.306Zm78.37-79.22q6.45-6.286,19.38-11.05L2194.1,129q-6.465,13.26-5.78,21.59t5.61,12.41a16.435,16.435,0,0,0,10.71,4.08,17.763,17.763,0,0,0,12.24-4.93q5.43-4.924,5.44-15.13,0-9.514-5.61-15.47t-16.49-5.95q-13.26,0-24.65,8.84a50.4,50.4,0,0,0-16.49,22.1l6.8,2.38A54.458,54.458,0,0,1,2177.1,142.086Z"/>
  <path id="多边形_1" data-name="多边形 1" class="cls-3" d="M231.5,29L375,111.75v165.5L231.5,360,88,277.25V111.75Z"/>
  <path id="D" class="cls-1" d="M211.41,128.46q-8.506.189-15.231,0.374-7.85.188-15.792-.094t-12.615-.467v3.737a27.785,27.785,0,0,1,8.877,1.4,6.743,6.743,0,0,1,4.112,4.484,36.9,36.9,0,0,1,1.028,10.184v92.68a37.028,37.028,0,0,1-1.028,10.09,6.5,6.5,0,0,1-4.018,4.485,33,33,0,0,1-8.971,1.494v3.738q4.669-.374,12.615-0.468t16.166-.093q6.166,0,14.483.28t12.8,0.281q23.358,0,40.086-8.409a59.441,59.441,0,0,0,25.51-23.637q8.781-15.228,8.783-35.6,0-31.2-17.941-47.928T225.52,128.273Q219.913,128.273,211.41,128.46Zm46.067,18.5q9.714,15.322,9.718,46.713,0,20.37-3.925,34.569t-12.988,21.581q-9.068,7.385-24.762,7.381-8.6,0-11.307-3.176t-2.71-12.893V147.706q0-9.713,2.617-12.893t11.213-3.176Q247.758,131.637,257.477,146.959Z"/>
</svg>
