<svg xmlns="http://www.w3.org/2000/svg" width="2116" height="271" viewBox="0 0 2116 271">
  <defs>
    <style>
      .cls-1 {
        fill: #205be6;
      }

      .cls-1, .cls-2 {
        fill-rule: evenodd;
      }

      .cls-2 {
        fill: #2f2f41;
      }
    </style>
  </defs>
  <path id="Protein" class="cls-1" d="M956.709,32.08q10.535,0.343,16.15,2.55a12.272,12.272,0,0,1,7.48,8.16q1.864,5.953,1.87,18.53V229.96q0,12.24-1.87,18.36a11.826,11.826,0,0,1-7.31,8.16q-5.442,2.04-16.32,2.72V266q11.22-.335,25.16-0.68t28.561-.34q18.36,0,35.02.34t27.2,0.68v-7.48q-15.3-.334-23.12-2.38t-10.54-8.5q-2.73-6.454-2.72-19.72V61.32q0-17.675,3.91-23.46t17.17-5.78q23.115,0,32.64,15.98t9.52,48.28a127.707,127.707,0,0,1-3.91,32.3q-3.915,14.966-14.28,24.14t-30.43,9.18L1036,162v7l18.29-.24q29.91,0,49.64-7.14,19.71-7.14,31.11-18.53a66.585,66.585,0,0,0,16.15-24.82,76.878,76.878,0,0,0,4.76-25.67q0-29.58-23.46-48.28t-70.72-18.7q-6.465,0-21.76.34t-31.62.34q-14.281,0-28.731-.34t-22.95-.68v6.8ZM1268.49,89.71a50.652,50.652,0,0,0-15.64,11.73,61.992,61.992,0,0,0-10.88,16.66V86.48a183.825,183.825,0,0,1-22.95,3.57q-12.42,1.2-26.69,1.19-10.2,0-21.08-1.02v7.14q12.57,0,17.17,7.31t4.59,22.61v107.1q0,14.28-4.93,19.38t-16.83,5.1V266q7.14-.335,21.08-0.85t27.54-.51q16.32,0,31.28.51t22.78,0.85v-7.14q-15.99,0-23.97-5.78t-7.99-22.1v-90.1a45.424,45.424,0,0,1,2.38-14.11,57.519,57.519,0,0,1,6.46-13.6,39.819,39.819,0,0,1,9.86-10.54,27.819,27.819,0,0,1,12.24-5.27,15.254,15.254,0,0,1,9.52-.34,40.065,40.065,0,0,0-10.71,10.71q-4.26,6.3-4.25,15.81,0,9.865,6.63,15.81t18.53,5.95q11.895,0,19.21-7.99t7.31-20.57a35.951,35.951,0,0,0-3.23-14.96,27.862,27.862,0,0,0-10.03-11.73q-6.81-4.59-17.68-4.59A44.917,44.917,0,0,0,1268.49,89.71Zm106.24,4.93q-18.87,9.18-29.58,29.58t-10.71,54.06q0,33.66,10.71,53.89t29.58,29.41q18.87,9.18,43.01,9.18,24.825,0,43.52-9.18t29.24-29.41q10.545-20.224,10.54-53.89t-10.54-54.06q-10.53-20.4-29.24-29.58-18.69-9.18-43.52-9.18Q1393.605,85.46,1374.73,94.64Zm65.96,17.85q9.015,20.232,9.01,65.79t-9.01,65.62q-9,20.065-22.95,20.06-13.59,0-22.78-20.06t-9.18-65.62q0-45.558,9.18-65.79t22.78-20.23Q1431.69,92.26,1440.69,112.49Zm127.84-69.7a127.57,127.57,0,0,1-26.35,2.55V90.22h-28.56v6.8h28.56V211.94q0,17.682,2.38,28.73a35.6,35.6,0,0,0,24.14,27.2,61.323,61.323,0,0,0,19.72,2.89q19.035,0,30.09-9.86A59.973,59.973,0,0,0,1635,235.74l-5.78-3.06q-4.77,11.22-10.88,15.81t-12.24,4.59q-7.485,0-11.22-4.25-3.75-4.248-3.74-14.45V97.02h40.12v-6.8h-40.12V34.46A82,82,0,0,1,1568.53,42.79Zm117.98,53.04q-18.87,10.376-29.58,31.45t-10.71,52.7q0,30.942,10.03,51t27.71,29.92q17.67,9.858,40.8,9.86,19.035,0,32.64-7.82a70.967,70.967,0,0,0,22.44-20.06,88.543,88.543,0,0,0,12.92-25.16l-6.12-2.04q-6.81,10.886-14.62,16.83a47.655,47.655,0,0,1-15.47,8.16,53.071,53.071,0,0,1-14.79,2.21q-10.545,0-20.74-6.63T1704.19,215q-6.63-14.614-6.63-38.08c0-3.172.05-6.232,0.17-9.18s0.28-5.78.51-8.5l-1.02-2.04q1.695-34.68,10.03-49.64t20.23-14.96q8.49,0,13.6,8.5t7.48,22.61a166.234,166.234,0,0,1,2.04,30.77h-53.7l0.68,6.46h95.86q0-40.114-17-57.8t-46.92-17.68Q1705.37,85.46,1686.51,95.83ZM1834.75,9.47q-8.34,6.973-8.33,19.21t8.33,19.21q8.325,6.973,22.61,6.97t22.61-6.97q8.325-6.965,8.33-19.21t-8.33-19.21q-8.34-6.965-22.61-6.97T1834.75,9.47Zm26.18,80.58q-12.42,1.2-26.69,1.19-10.2,0-21.08-1.02v7.14q12.57,0,17.17,7.31t4.59,22.61v107.1q0,14.28-4.93,19.38t-16.83,5.1V266q6.795-.335,20.4-0.85,13.59-.51,26.86-0.51t26.01,0.51q12.75,0.51,19.21.85v-7.14q-11.91,0-16.83-5.1t-4.93-19.38V86.48A183.825,183.825,0,0,1,1860.93,90.05Zm153.16,2.55q-14.625,7.14-23.12,24.48V86.48a183.825,183.825,0,0,1-22.95,3.57q-12.42,1.2-26.69,1.19-10.2,0-21.08-1.02v7.14q12.57,0,17.17,7.31t4.59,22.61v107.1q0,14.28-4.93,19.38t-16.83,5.1V266q6.8-.335,20.4-0.85,13.59-.51,26.52-0.51,12.57,0,24.31.51t17.85,0.85v-7.14q-9.87,0-14.11-5.1-4.26-5.1-4.25-19.38V139.86a43.926,43.926,0,0,1,4.59-20.23,36.409,36.409,0,0,1,12.24-14.11,29.706,29.706,0,0,1,16.83-5.1q8.835,0,13.26,3.57a18.506,18.506,0,0,1,6.12,9.86,57.257,57.257,0,0,1,1.7,14.79V234.38q0,14.28-4.08,19.38t-14.28,5.1V266q6.45-.335,18.87-0.85,12.4-.51,25.33-0.51,12.57,0,25.5.51,12.915,0.51,19.38.85v-7.14q-11.91,0-16.83-5.1-4.935-5.1-4.93-19.38V142.92q0-17.34-2.55-27.54a40.911,40.911,0,0,0-7.99-16.66,34.441,34.441,0,0,0-14.11-9.69q-9.015-3.57-23.29-3.57A73.346,73.346,0,0,0,2014.09,92.6Z"/>
  <path id="Torch" class="cls-2" d="M175.948,25.96q-18.7.343-37.231,0.34H71.228q-18.7,0-37.23-.34t-34.17-.68Q1.182,42.62,1.7,58.6t0.51,24.48q0,7.483-.17,14.28a102.519,102.519,0,0,1-.85,11.56h7.82q6.12-28.895,14.28-45.39t19.72-23.46q11.555-6.965,27.2-6.97h7.48V227.24q0,13.6-2.72,20.4t-10.54,9.01q-7.825,2.216-23.12,2.55V266q10.2-.335,26.86-0.68t35.36-.34q19.038,0,36.55.34t28.05,0.68v-6.8q-14.966-.334-22.779-2.55t-10.711-9.01q-2.892-6.8-2.89-20.4V33.1h7.82q15.636,0,27.2,6.97T186.657,63.7q8.328,16.663,13.77,45.22h7.82q-0.342-4.758-.679-11.56t-0.341-14.28q0-8.495.51-24.48t1.87-33.32Q194.643,25.623,175.948,25.96Zm95.369,68.68q-18.87,9.18-29.58,29.58t-10.71,54.06q0,33.66,10.71,53.89t29.58,29.41q18.87,9.18,43.01,9.18,24.815,0,43.52-9.18t29.24-29.41q10.535-20.224,10.54-53.89t-10.54-54.06q-10.542-20.4-29.24-29.58t-43.52-9.18Q290.182,85.46,271.317,94.64Zm65.96,17.85q9,20.232,9.01,65.79t-9.01,65.62q-9.012,20.065-22.95,20.06-13.6,0-22.78-20.06t-9.18-65.62q0-45.558,9.18-65.79t22.78-20.23Q328.265,92.26,337.277,112.49ZM515.943,89.71a50.7,50.7,0,0,0-15.64,11.73,62.064,62.064,0,0,0-10.88,16.66V86.48a183.766,183.766,0,0,1-22.95,3.57q-12.416,1.2-26.69,1.19-10.2,0-21.08-1.02v7.14q12.575,0,17.17,7.31t4.59,22.61v107.1q0,14.28-4.93,19.38t-16.83,5.1V266q7.14-.335,21.08-0.85t27.54-.51q16.32,0,31.28.51t22.78,0.85v-7.14q-15.986,0-23.97-5.78t-7.99-22.1v-90.1a45.483,45.483,0,0,1,2.38-14.11,57.636,57.636,0,0,1,6.46-13.6,39.867,39.867,0,0,1,9.86-10.54,27.829,27.829,0,0,1,12.24-5.27,15.255,15.255,0,0,1,9.52-.34,40.094,40.094,0,0,0-10.71,10.71q-4.255,6.3-4.25,15.81,0,9.865,6.63,15.81t18.53,5.95q11.9,0,19.21-7.99t7.31-20.57a35.935,35.935,0,0,0-3.23-14.96,27.827,27.827,0,0,0-10.03-11.73q-6.805-4.59-17.68-4.59A44.93,44.93,0,0,0,515.943,89.71ZM622.7,96q-19.045,10.542-30.09,31.45t-11.05,51.51q0,31.962,10.71,52.19t28.56,29.92q17.85,9.69,39.95,9.69,19.715,0,33.32-7.99a67.53,67.53,0,0,0,22.1-20.57,92,92,0,0,0,12.24-25.16l-5.78-2.04q-6.805,11.22-14.79,17.34a45.245,45.245,0,0,1-15.64,8.16,55.08,55.08,0,0,1-14.11,2.04,41.891,41.891,0,0,1-21.59-6.12q-10.375-6.12-17-21.08T632.9,174.2a164.918,164.918,0,0,1,2.89-31.96,100.483,100.483,0,0,1,8.33-25.5q5.435-10.878,13.43-17a29.614,29.614,0,0,1,18.53-6.12A30.305,30.305,0,0,1,688.321,96a21.069,21.069,0,0,1,8.16,5.78,32.784,32.784,0,0,0-15.64,9.69q-6.806,7.315-6.8,18.19,0,11.562,7.14,18.36t19.04,6.8q11.9,0,19.38-7.65t7.48-19.55a34.609,34.609,0,0,0-4.93-18.53,41.225,41.225,0,0,0-13.77-13.43,66.951,66.951,0,0,0-18.19-7.31,96.143,96.143,0,0,0-24.31-2.89Q641.736,85.46,622.7,96ZM792.017,3.69q-12.583,1.2-26.52,1.19-10.2,0-21.08-1.02V11q12.574,0,17.17,7.31t4.59,22.61V234.38q0,14.28-4.93,19.38t-16.83,5.1V266q6.8-.335,20.23-0.85t26.69-.51q12.24,0,24.14.51T833.5,266v-7.14q-10.2,0-14.28-5.1t-4.08-19.38V139.52a43.666,43.666,0,0,1,4.59-20.4,35.354,35.354,0,0,1,12.24-13.77,30.469,30.469,0,0,1,16.83-4.93q8.495,0,13.09,3.57a18.035,18.035,0,0,1,6.29,9.86,57.214,57.214,0,0,1,1.7,14.79V234.38q0,14.28-4.08,19.38t-14.28,5.1V266q6.12-.335,18.53-0.85t25.67-.51q12.24,0,25.33.51T940.6,266v-7.14q-11.906,0-16.83-5.1t-4.93-19.38V142.92q0-17.34-2.55-27.54a38.536,38.536,0,0,0-8.33-16.66,34.55,34.55,0,0,0-13.94-9.69q-8.846-3.57-23.46-3.57a73.814,73.814,0,0,0-32.47,6.97q-14.455,6.973-22.95,24.65V0.12A183.408,183.408,0,0,1,792.017,3.69Z"/>
</svg>
